<mxfile host="Electron" modified="2023-12-27T08:58:26.795Z" agent="Mozilla/5.0 (Macintosh; Intel Mac OS X 10_15_7) AppleWebKit/537.36 (KHTML, like Gecko) draw.io/22.1.11 Chrome/114.0.5735.289 Electron/25.9.8 Safari/537.36" etag="gVuasF5jUHkipX5n0fVI" version="22.1.11" type="device">
  <diagram name="Pagina-1" id="nld5EbubUB0a8wBFi0T5">
    <mxGraphModel dx="954" dy="727" grid="1" gridSize="10" guides="1" tooltips="1" connect="1" arrows="1" fold="1" page="1" pageScale="1" pageWidth="827" pageHeight="1169" math="0" shadow="0">
      <root>
        <mxCell id="0" />
        <mxCell id="1" parent="0" />
        <mxCell id="V1U8ri_Dc6BBtjI7rHcF-7" style="edgeStyle=orthogonalEdgeStyle;rounded=0;orthogonalLoop=1;jettySize=auto;html=1;exitX=1;exitY=0.5;exitDx=0;exitDy=0;endArrow=none;endFill=0;" parent="1" edge="1">
          <mxGeometry relative="1" as="geometry">
            <mxPoint x="130" y="130" as="sourcePoint" />
            <mxPoint x="490" y="80" as="targetPoint" />
          </mxGeometry>
        </mxCell>
        <mxCell id="V1U8ri_Dc6BBtjI7rHcF-1" value="UTENTE" style="rounded=0;whiteSpace=wrap;html=1;" parent="1" vertex="1">
          <mxGeometry x="60" y="100" width="120" height="60" as="geometry" />
        </mxCell>
        <mxCell id="V1U8ri_Dc6BBtjI7rHcF-5" style="edgeStyle=orthogonalEdgeStyle;rounded=0;orthogonalLoop=1;jettySize=auto;html=1;exitX=0.5;exitY=0;exitDx=0;exitDy=0;entryX=0.5;entryY=1;entryDx=0;entryDy=0;endArrow=block;endFill=0;" parent="1" source="V1U8ri_Dc6BBtjI7rHcF-2" target="V1U8ri_Dc6BBtjI7rHcF-1" edge="1">
          <mxGeometry relative="1" as="geometry" />
        </mxCell>
        <mxCell id="V1U8ri_Dc6BBtjI7rHcF-2" value="NON ABBONATO" style="rounded=0;whiteSpace=wrap;html=1;" parent="1" vertex="1">
          <mxGeometry x="160" y="250" width="120" height="60" as="geometry" />
        </mxCell>
        <mxCell id="V1U8ri_Dc6BBtjI7rHcF-4" style="edgeStyle=orthogonalEdgeStyle;rounded=0;orthogonalLoop=1;jettySize=auto;html=1;exitX=0.5;exitY=0;exitDx=0;exitDy=0;entryX=0.5;entryY=1;entryDx=0;entryDy=0;endArrow=block;endFill=0;" parent="1" source="V1U8ri_Dc6BBtjI7rHcF-3" target="V1U8ri_Dc6BBtjI7rHcF-1" edge="1">
          <mxGeometry relative="1" as="geometry" />
        </mxCell>
        <mxCell id="V1U8ri_Dc6BBtjI7rHcF-3" value="&amp;nbsp;&amp;nbsp; ABBONATO&lt;span style=&quot;white-space: pre;&quot;&gt;&#x9;&lt;/span&gt;&lt;span style=&quot;white-space: pre;&quot;&gt;&#x9;&lt;/span&gt;" style="rounded=0;whiteSpace=wrap;html=1;" parent="1" vertex="1">
          <mxGeometry y="250" width="120" height="60" as="geometry" />
        </mxCell>
        <mxCell id="V1U8ri_Dc6BBtjI7rHcF-6" value="&lt;div&gt;STORIA&lt;/div&gt;" style="rounded=0;whiteSpace=wrap;html=1;" parent="1" vertex="1">
          <mxGeometry x="480" y="20" width="120" height="60" as="geometry" />
        </mxCell>
        <mxCell id="V1U8ri_Dc6BBtjI7rHcF-8" value="scrive " style="text;html=1;align=center;verticalAlign=middle;resizable=0;points=[];autosize=1;strokeColor=none;fillColor=none;" parent="1" vertex="1">
          <mxGeometry x="305" y="108" width="50" height="30" as="geometry" />
        </mxCell>
        <mxCell id="V1U8ri_Dc6BBtjI7rHcF-11" value="1" style="text;html=1;align=center;verticalAlign=middle;resizable=0;points=[];autosize=1;strokeColor=none;fillColor=none;" parent="1" vertex="1">
          <mxGeometry x="180" y="100" width="30" height="30" as="geometry" />
        </mxCell>
        <mxCell id="V1U8ri_Dc6BBtjI7rHcF-12" value="n" style="text;html=1;align=center;verticalAlign=middle;resizable=0;points=[];autosize=1;strokeColor=none;fillColor=none;" parent="1" vertex="1">
          <mxGeometry x="470" y="80" width="30" height="30" as="geometry" />
        </mxCell>
        <mxCell id="V1U8ri_Dc6BBtjI7rHcF-13" style="edgeStyle=orthogonalEdgeStyle;rounded=0;orthogonalLoop=1;jettySize=auto;html=1;exitX=0.383;exitY=1.017;exitDx=0;exitDy=0;entryX=0.35;entryY=1.017;entryDx=0;entryDy=0;entryPerimeter=0;endArrow=none;endFill=0;exitPerimeter=0;" parent="1" source="V1U8ri_Dc6BBtjI7rHcF-3" target="V1U8ri_Dc6BBtjI7rHcF-6" edge="1">
          <mxGeometry relative="1" as="geometry">
            <mxPoint x="60" y="345.02" as="sourcePoint" />
            <mxPoint x="557.04" y="120.00000000000001" as="targetPoint" />
          </mxGeometry>
        </mxCell>
        <mxCell id="V1U8ri_Dc6BBtjI7rHcF-14" value="gioca" style="text;html=1;align=center;verticalAlign=middle;resizable=0;points=[];autosize=1;strokeColor=none;fillColor=none;" parent="1" vertex="1">
          <mxGeometry x="235" y="328" width="50" height="30" as="geometry" />
        </mxCell>
        <mxCell id="V1U8ri_Dc6BBtjI7rHcF-15" value="n" style="text;html=1;align=center;verticalAlign=middle;resizable=0;points=[];autosize=1;strokeColor=none;fillColor=none;" parent="1" vertex="1">
          <mxGeometry x="20" y="308" width="30" height="30" as="geometry" />
        </mxCell>
        <mxCell id="V1U8ri_Dc6BBtjI7rHcF-16" value="n" style="text;html=1;align=center;verticalAlign=middle;resizable=0;points=[];autosize=1;strokeColor=none;fillColor=none;" parent="1" vertex="1">
          <mxGeometry x="520" y="78" width="30" height="30" as="geometry" />
        </mxCell>
        <mxCell id="V1U8ri_Dc6BBtjI7rHcF-18" value="&lt;div&gt;SISTEMA DI PAGAMENTO&lt;/div&gt;" style="rounded=0;whiteSpace=wrap;html=1;" parent="1" vertex="1">
          <mxGeometry x="10" y="430" width="120" height="60" as="geometry" />
        </mxCell>
        <mxCell id="V1U8ri_Dc6BBtjI7rHcF-19" style="edgeStyle=orthogonalEdgeStyle;rounded=0;orthogonalLoop=1;jettySize=auto;html=1;exitX=0.5;exitY=1;exitDx=0;exitDy=0;entryX=0.417;entryY=0.033;entryDx=0;entryDy=0;entryPerimeter=0;endArrow=none;endFill=0;" parent="1" source="V1U8ri_Dc6BBtjI7rHcF-3" target="V1U8ri_Dc6BBtjI7rHcF-18" edge="1">
          <mxGeometry relative="1" as="geometry" />
        </mxCell>
        <mxCell id="V1U8ri_Dc6BBtjI7rHcF-20" value="n" style="text;html=1;align=center;verticalAlign=middle;resizable=0;points=[];autosize=1;strokeColor=none;fillColor=none;" parent="1" vertex="1">
          <mxGeometry x="55" y="400" width="30" height="30" as="geometry" />
        </mxCell>
        <mxCell id="V1U8ri_Dc6BBtjI7rHcF-22" value="&lt;div&gt;n&lt;/div&gt;" style="text;html=1;align=center;verticalAlign=middle;resizable=0;points=[];autosize=1;strokeColor=none;fillColor=none;" parent="1" vertex="1">
          <mxGeometry x="55" y="308" width="30" height="30" as="geometry" />
        </mxCell>
        <mxCell id="6j_rmeO9IcI4aVwqTMd1-1" value="&lt;div&gt;CATALOGO&lt;/div&gt;" style="rounded=0;whiteSpace=wrap;html=1;" parent="1" vertex="1">
          <mxGeometry x="707" y="20" width="120" height="60" as="geometry" />
        </mxCell>
        <mxCell id="6j_rmeO9IcI4aVwqTMd1-2" value="" style="endArrow=none;startArrow=diamondThin;endFill=0;startFill=1;html=1;verticalAlign=bottom;labelBackgroundColor=none;strokeWidth=1;startSize=8;endSize=8;rounded=0;exitX=0;exitY=0.5;exitDx=0;exitDy=0;entryX=1;entryY=0.5;entryDx=0;entryDy=0;" parent="1" source="6j_rmeO9IcI4aVwqTMd1-1" target="V1U8ri_Dc6BBtjI7rHcF-6" edge="1">
          <mxGeometry width="160" relative="1" as="geometry">
            <mxPoint x="570" y="180" as="sourcePoint" />
            <mxPoint x="730" y="180" as="targetPoint" />
          </mxGeometry>
        </mxCell>
      </root>
    </mxGraphModel>
  </diagram>
</mxfile>
